# xmcd CD database file
#
# Track frame offsets:
#	150
#	28945
#	64417
#	88555
#	115347
#	148562
#	179965
#	209932
#	237200
#
# Disc length: 3433 seconds
#
# Revision: 0
# Processed by: cddbd v1.5.2PL0 Copyright (c) Steve Scherf et al.
# Submitted via: CDex 1.70beta2
#
DISCID=910d6709
DTITLE=George Braith - The Complete Blue Note Sessions, CD 2
DYEAR=1900
DGENRE=Jazz
TTITLE0=Boop Bop Bing Bash
TTITLE1=Billy Told
TTITLE2=Jo Anne
TTITLE3=Nut City
TTITLE4=Ethlyn's Love
TTITLE5=Out Here
TTITLE6=Extension
TTITLE7=Sweetville
TTITLE8=Ev'rt Time We Say Goodbye
EXTD=
EXTT0=
EXTT1=
EXTT2=
EXTT3=
EXTT4=
EXTT5=
EXTT6=
EXTT7=
EXTT8=
PLAYORDER=
